<svg width="2405.365" height="513.464" xmlns="http://www.w3.org/2000/svg"><defs><clipPath clipPathUnits="userSpaceOnUse" id="a"><path d="M0 1000h2160V0H0z"/></clipPath></defs><g clip-path="url(#a)" transform="matrix(1.33333 0 0 -1.33333 -234.807 920.449)"><path d="M755.35 486.83h30.8v-44.4c0-22.4-11.2-35.2-32.8-35.2-21.6 0-32.8 12.8-32.8 35.2v72.798c0 22.4 11.2 35.2 32.8 35.2 21.6 0 32.8-12.8 32.8-35.2V501.63h-20.8v15c0 10-4.4 13.8-11.4 13.8s-11.4-3.8-11.4-13.8v-75.6c0-10 4.4-13.599 11.4-13.599s11.4 3.6 11.4 13.6v25.8h-10zm67 41.998V485.83h8.6c8.2 0 13.2 3.6 13.2 14.8v13.8c0 10-3.4 14.4-11.2 14.4zm24-119.998c-1.2 3.6-2 5.8-2 17.2v22c0 13-4.4 17.8-14.4 17.8h-7.6v-57h-22v139.998h33.2c22.8 0 32.6-10.6 32.6-32.199v-11c0-14.4-4.6-23.8-14.4-28.4 11-4.6 14.6-15.2 14.6-29.799v-21.6c0-6.8.2-11.8 2.4-17zm56.399 81h30.2v-20h-30.2v-41h38v-20h-60v139.998h60v-20h-38zm73.599 0h30.2v-20h-30.2v-41h38v-20h-60v139.998h60v-20h-38zm71.199 20.398V408.83h-19.8v140h27.6l22.599-83.8v83.8h19.6v-140h-22.6zm118.797-23.599h28.4v-20h-28.4v-57.8h-22v139.999h58.2v-20h-36.2zm67-45.599c0-10 4.399-13.8 11.399-13.8 6.999 0 11.4 3.8 11.4 13.8v75.6c0 9.998-4.401 13.798-11.4 13.798-7 0-11.4-3.8-11.4-13.799zm-22 74.198c0 22.4 11.799 35.2 33.399 35.2s33.4-12.8 33.4-35.2V442.43c0-22.399-11.8-35.199-33.4-35.199-21.6 0-33.4 12.8-33.4 35.2zm151.398 33.6l-23-67.999 24.6-71.999h-23.2l-18 55.4-18.2-55.4h-20.599l24.6 72-23 67.998h22.8l16.6-51.6 17 51.6zm64.598-95.598h21.2l-10.6 70.798zm50.199-44.4h-22.2l-3.8 25.4h-26.998l-3.801-25.4h-20.2l22.4 139.998h32.2zm74.001 52.2v-18.6c0-22.4-11.2-35.2-32.8-35.2-21.599 0-32.8 12.8-32.8 35.2v72.798c0 22.4 11.201 35.2 32.8 35.2 21.6 0 32.8-12.8 32.8-35.2V501.63h-20.8v15c0 10-4.4 13.8-11.4 13.8s-11.4-3.8-11.4-13.8v-75.6c0-10 4.4-13.6 11.4-13.6s11.4 3.6 11.4 13.6v20zm34.398-7.8h21.198l-10.598 70.798zm50.198-44.4h-22.2l-3.8 25.4h-27l-3.8-25.4h-20.198l22.4 139.998h32.199zm32.2 119.998V428.83h12.4c7 0 11.2 3.6 11.2 13.6v72.798c0 10-4.2 13.6-11.2 13.6zm-22 20h34.8c22 0 32.8-12.2 32.8-34.6V443.43c0-22.4-10.8-34.6-32.8-34.6h-34.8zm103.598-58.998h30.2v-20h-30.2v-41h38v-20h-60v139.998h60v-20h-38zm98.199-40.4l15 99.398h30.6V408.83h-20.8v100.399l-15.2-100.4h-20.8l-16.4 98.999V408.83h-19.2v139.998h30.6zm82.197 5.8l-27.8 93.598h23l16.8-63.799 16.8 63.8h21l-27.8-93.6V408.83h-22z" fill="#3c3c3b"/><path d="M414.718 520.453c0-6.097-4.178-11.038-9.33-11.038-5.154 0-9.327 4.941-9.327 11.038 0 6.095 4.173 11.04 9.326 11.04 5.153-.003 9.331-4.945 9.331-11.04" fill="#3cb878"/><path d="M283.084 520.453c0-6.097-4.178-11.038-9.331-11.038-5.154 0-9.327 4.941-9.327 11.038s4.173 11.04 9.327 11.04c5.153 0 9.33-4.943 9.33-11.04" fill="#007335"/><path d="M429.86 539.042c0-54.981-49.675-36.942-49.675-36.942-1.14 51.677 49.675 36.942 49.675 36.942m10.532-29.301c16.52 13.923 31.504 24.518 40.473 26.224l20.13 20.129c-7.179 9.048-15.617 17.15-25.04 24.325-.11.083-.217.17-.327.254-8.36 6.329-17.496 11.925-27.227 16.786l.002.01c9.983 50.729 42.664 90.395 43.892 91.871l.04.048c-76.13 8.999-108.293-48.461-117.615-70.115-.135.019-.269.04-.404.057a277.037 277.037 0 01-35.766 2.307V434.646l.021.001h.008l.025.001h.003c6.188-.022 11.93-1.744 16.998-4.527h.001l.151-.081a37.277 37.277 0 001.524-.895c6.515 6.959 48.24 51.206 83.111 80.596" fill="#3cb878"/><path d="M296.914 502.1s-49.675-18.04-49.675 36.942c0 0 50.818 14.736 49.675-36.942m5.466 117.174c-9.322 21.65-41.485 79.113-117.615 70.114l.04-.048c1.208-1.452 32.884-39.898 43.401-89.477l.001-.002c.168-.793.331-1.59.488-2.388l.006-.027c-9.859-4.926-19.099-10.612-27.55-17.04-9.426-7.17-17.87-15.266-25.046-24.312l20.181-20.181c8.973-1.74 23.921-12.31 40.402-26.2 34.89-29.402 76.65-73.69 83.137-80.62a36.4 36.4 0 01-8.92-7.801l.018-.017a36.523 36.523 0 0010.536 8.765l.102.054c5.066 2.792 10.806 4.522 16.99 4.553v186.99a277.16 277.16 0 01-36.17-2.363" fill="#007335"/><path d="M357.282 429.144a.142.142 0 01-.012-.013 36.447 36.447 0 008.939-7.792l-1.345-1.345.015-.017 1.36 1.361a36.412 36.412 0 01-8.957 7.806" fill="#f6f3cf"/><path d="M357.27 429.132c-.507.314-1.021.617-1.544.908-.05.028-.101.054-.151.08h-.001c-5.07 2.784-10.81 4.506-16.998 4.529h-.003l-.025-.001h-.008l-.021-.001c-6.183-.032-11.924-1.761-16.99-4.553l-.101-.054a37.649 37.649 0 01-1.603-.946 36.396 36.396 0 01-8.934-7.82l1.333-1.331 26.264-26.264v-.061l.03.03.03-.03v.06l26.316 26.315 1.345 1.346a36.429 36.429 0 01-8.94 7.793m91.134 168.337c0-.003 0-.006-.002-.01 9.731-4.861 18.867-10.457 27.227-16.786.11-.084.216-.171.326-.254 9.15 20.507 15.844 59.214 16.38 108.969l-.039-.048c-1.227-1.475-33.909-41.142-43.892-91.871" fill="#3c3c3b"/><path d="M448.403 597.469c9.983 50.729 42.665 90.396 43.892 91.87-1.228-1.474-33.909-41.141-43.892-91.87m-219.708.004c-.157.799-.32 1.595-.488 2.388v.002c-10.518 49.58-42.195 88.026-43.403 89.477a2.973 2.973 0 00-.039.048c.536-49.766 7.234-88.477 16.386-108.982 8.451 6.428 17.69 12.114 27.55 17.04a.118.118 0 00-.006.027" fill="#3c3c3b"/><path d="M184.805 689.34c1.208-1.451 32.885-39.897 43.402-89.478-10.517 49.58-42.194 88.026-43.402 89.478m43.403-89.48" fill="#3c3c3b"/><path d="M338.548 393.679v-.061l-.03.03-.031-.03v.06l-26.263 26.265-.006-.006-81.05 81.05c-10.418-18.131-16.376-39.152-16.376-61.563 0-68.35 55.408-123.76 123.757-123.76v78.017z" fill="#007335"/><path d="M524.394 465.248c-.677 21.906 12.78 48.868 12.78 48.868-15.341.723-30.744-5.037-43.909-12.372 21.35 45.211 86.038 78.657 86.038 78.657s73.264-70.829-11.46-151.125c7.956 34.695-3.832 64.402-3.832 64.402-13.027-21.357-39.617-28.43-39.617-28.43" fill="#f6f3cf"/><path d="M564.01 493.678c-13.025-21.356-39.616-28.43-39.616-28.43-.676 21.907 12.78 48.868 12.78 48.868-15.34.723-30.744-5.037-43.91-12.372-1.808-3.828-3.401-7.708-4.524-11.69-5.25-18.676-14.283-37.12-26.454-52.35-.372-27.304-9.582-52.472-24.906-72.772 29.72 2.373 67.836 14.685 112.493 49.029 6.666 5.135 12.608 10.244 17.97 15.316 7.957 34.694-3.832 64.4-3.832 64.4" fill="#3cb878"/><path d="M445.916 501.015l-81.038-81.037-.015.016-26.313-26.313v-78.016c40.381 0 76.241 19.344 98.83 49.267 15.325 20.3 24.535 45.468 24.906 72.773.008.573.022 1.144.022 1.719 0 22.423-5.964 43.452-16.391 61.59" fill="#3cb878"/><path d="M440.392 509.741c-34.872-29.39-76.596-73.638-83.11-80.597a36.465 36.465 0 008.958-7.805l29.721 29.721 84.904 84.905c-8.969-1.706-23.952-12.3-40.473-26.224" fill="#f6f3cf"/><path d="M319.825 429.094c-6.487 6.93-48.247 51.217-83.137 80.62-16.48 13.89-31.43 24.46-40.402 26.198l114.62-114.62a36.395 36.395 0 008.919 7.802" fill="#d5d2b1"/><path d="M290.884 346.04c-22.53 0-40.805-18.268-40.805-40.802h81.61c0 22.534-18.275 40.801-40.805 40.801m94.306.001c-22.533 0-40.805-18.268-40.805-40.802h81.603c0 22.534-18.258 40.801-40.797 40.801" fill="#3c3c3b"/></g></svg>